<svg xmlns:inkscape="http://www.inkscape.org/namespaces/inkscape" xmlns:sodipodi="http://sodipodi.sourceforge.net/DTD/sodipodi-0.dtd" xmlns="http://www.w3.org/2000/svg" xmlns:svg="http://www.w3.org/2000/svg" viewBox="0 0 8.46667 10.5833375" version="1.1" x="0px" y="0px"><g transform="translate(-159.36836,-134.19887)"><path style="color:#000000;" d="m 163.07254,135.25721 c -0.67918,-3.5e-4 -1.35874,0.25647 -1.87379,0.77153 -1.03011,1.0301 -1.03011,2.7185 0,3.74861 1.03011,1.0301 2.71696,1.02855 3.74706,-0.002 0.66163,-0.66163 0.92367,-1.62397 0.69195,-2.52904 -0.002,-0.009 -0.005,-0.0194 -0.007,-0.0289 -0.12035,-0.44913 -0.35593,-0.85874 -0.68471,-1.18753 -0.51505,-0.51505 -1.19409,-0.77273 -1.87327,-0.77307 z m 5.1e-4,0.56689 a 0.26458299,0.26458299 0 0 1 0.26407,0.26407 0.26458299,0.26458299 0 0 1 -0.26406,0.26355 c -0.42002,2.4e-4 -0.82114,0.1709 -1.11311,0.47284 a 0.26458299,0.26458299 0 0 1 -0.37518,0.008 0.26458299,0.26458299 0 0 1 -0.006,-0.37517 c 0.39176,-0.40449 0.93085,-0.63219 1.49397,-0.63252 z" fill="#000000" stroke-linecap="round" stroke-linejoin="round"/><path style="color:#000000;" d="m 164.24609,139.07617 a 0.52916002,0.52916002 0 0 0 0,0.74805 l 1.62696,1.6289 a 0.52916002,0.52916002 0 0 0 0.74804,0 0.52916002,0.52916002 0 0 0 0,-0.75 l -1.62695,-1.62695 a 0.52916002,0.52916002 0 0 0 -0.74805,0 z" fill="#000000" stroke-linecap="round" stroke-linejoin="round"/></g><text x="0" y="23.46667" fill="#000000" font-size="5px" font-weight="bold" font-family="'Helvetica Neue', Helvetica, Arial-Unicode, Arial, Sans-serif">Created by Meko</text><text x="0" y="28.46667" fill="#000000" font-size="5px" font-weight="bold" font-family="'Helvetica Neue', Helvetica, Arial-Unicode, Arial, Sans-serif">from the Noun Project</text></svg>